<svg width="80" height="53" viewBox="0 0 80 53" fill="none" xmlns="http://www.w3.org/2000/svg">
<path d="M0.551136 53V0.636362H35.2216V9.7642H11.6222V22.2415H32.9205V31.3693H11.6222V53H0.551136ZM40.5083 53V0.636362H61.1674C65.139 0.636362 68.5225 1.39489 71.318 2.91193C74.1134 4.41193 76.2441 6.5 77.71 9.17613C79.193 11.8352 79.9345 14.9034 79.9345 18.3807C79.9345 21.858 79.1845 24.9261 77.6845 27.5852C76.1845 30.2443 74.0112 32.3153 71.1646 33.7983C68.335 35.2812 64.9089 36.0227 60.8862 36.0227H47.7186V27.1506H59.0964C61.2271 27.1506 62.9828 26.7841 64.3634 26.0511C65.7612 25.3011 66.8009 24.2699 67.4828 22.9574C68.1816 21.6278 68.5311 20.1023 68.5311 18.3807C68.5311 16.642 68.1816 15.125 67.4828 13.8295C66.8009 12.517 65.7612 11.5028 64.3634 10.7869C62.9657 10.054 61.193 9.6875 59.0453 9.6875H51.5793V53H40.5083Z" fill="white"/>
</svg>
